<?xml version="1.0" encoding="UTF-8" standalone="no"?>
<svg
   xmlns:dc="http://purl.org/dc/elements/1.1/"
   xmlns:cc="http://creativecommons.org/ns#"
   xmlns:rdf="http://www.w3.org/1999/02/22-rdf-syntax-ns#"
   xmlns:svg="http://www.w3.org/2000/svg"
   xmlns="http://www.w3.org/2000/svg"
   id="svg2"
   version="1.1"
   xml:space="preserve"
   style="enable-background:new 0 0 47.5 47.5;"
   viewBox="0 0 47.5 47.5"><metadata
     id="metadata8"><rdf:RDF><cc:Work
         rdf:about=""><dc:format>image/svg+xml</dc:format><dc:type
           rdf:resource="http://purl.org/dc/dcmitype/StillImage" /><dc:title></dc:title></cc:Work></rdf:RDF></metadata><defs
     id="defs6"><clipPath
       clipPathUnits="userSpaceOnUse"
       id="clipPath16"><path
         d="M 0,38 38,38 38,0 0,0 0,38 Z"
         id="path18" /></clipPath></defs><g
     transform="matrix(1.25,0,0,-1.25,0,47.5)"
     id="g14"
     clip-path="url(#clipPath16)"><g
       id="g20"
       transform="translate(34.541,13.8018)"><path
         d="m 0,0 c 0.364,1.578 0.243,3.266 -0.458,4.946 -0.678,1.625 -1.847,2.91 -3.271,3.773 0.319,1.193 0.235,2.475 -0.324,3.751 -0.841,1.92 -2.66,3.201 -4.712,3.562 0.249,0.572 0.329,1.288 0.036,2.167 -1,3 -5,1 -8,4.999 -2.439,-1.464 -2.969,-3.639 -2.877,-5.487 -2.422,-0.412 -3.8,-0.936 -3.8,-0.936 l 0,-0.002 c -1.361,-0.551 -2.323,-1.884 -2.323,-3.443 0,-0.879 0.318,-1.676 0.829,-2.312 l -0.692,-0.259 10e-4,-0.003 c -2.33,-0.87 -3.975,-2.976 -3.975,-5.439 0,-1.046 0.3,-2.027 0.82,-2.878 -2.824,-1.268 -4.795,-4.022 -4.795,-7.241 0,-4.418 3.691,-8 8.244,-8 3.269,0 6.559,0.703 9.531,1.665 2.243,-1.04 5.695,-1.665 10.892,-1.665 4.05,0 7.333,3.283 7.333,7.333 C 2.459,-3.293 1.506,-1.344 0,0"
         style="fill:#bf6952;fill-opacity:1;fill-rule:nonzero;stroke:none"
         id="path22" /></g><g
       id="g24"
       transform="translate(18,21.5)"><path
         d="M 0,0 C 0,-2.485 -1.567,-4.5 -3.5,-4.5 -5.433,-4.5 -7,-2.485 -7,0 -7,2.485 -5.433,4.5 -3.5,4.5 -1.567,4.5 0,2.485 0,0"
         style="fill:#f5f8fa;fill-opacity:1;fill-rule:nonzero;stroke:none"
         id="path26" /></g><g
       id="g28"
       transform="translate(28,21.5)"><path
         d="M 0,0 C 0,-2.485 -1.566,-4.5 -3.5,-4.5 -5.434,-4.5 -7,-2.485 -7,0 -7,2.485 -5.434,4.5 -3.5,4.5 -1.566,4.5 0,2.485 0,0"
         style="fill:#f5f8fa;fill-opacity:1;fill-rule:nonzero;stroke:none"
         id="path30" /></g><g
       id="g32"
       transform="translate(17,21.5)"><path
         d="m -0.13459268,-1.7497048 c 0,-1.381 -0.89600002,-2.5 -2.00000002,-2.5 -1.104,0 -2,1.119 -2,2.5 0,1.38099996 0.896,2.49999996 2,2.49999996 1.104,0 2.00000002,-1.119 2.00000002,-2.49999996"
         style="fill:#292f33;fill-opacity:1;fill-rule:nonzero;stroke:none"
         id="path34" /></g><g
       id="g36"
       transform="translate(26.31405,19.705431)"><path
         d="m 0,0 c 0,-1.381 -0.896,-2.5 -2,-2.5 -1.104,0 -2,1.119 -2,2.5 0,1.381 0.896,2.5 2,2.5 1.104,0 2,-1.119 2,-2.5"
         style="fill:#292f33;fill-opacity:1;fill-rule:nonzero;stroke:none"
         id="path38" /></g><g
       id="g40"
       transform="matrix(1,0,0,-1,10.4473,7.895)"><path
         d="m 0,0 c -0.246,0.492 0.003,0.895 0.553,0.895 l 18,0 c 0.55,0 0.799,-0.403 0.552,-0.895 0,0 -2.552,-5.105 -9.552,-5.105 C 2.553,-5.105 0,0 0,0"
         style="fill:#292f33;fill-opacity:1;fill-rule:nonzero;stroke:none"
         id="path42" /></g><g
       id="g44"
       transform="translate(20,6.7383704)"><path
         d="m -6.292,0.2565 c 1.492,0.955 3.545,1.744 6.292,1.744 2.747,0 4.801,-0.789 6.292,-1.744"
         style="fill:#f2abba;fill-opacity:1;fill-rule:nonzero;stroke:none"
         id="path46" /></g></g></svg>